<svg xmlns="http://www.w3.org/2000/svg" width="375" height="38" version="1"><g id="Page-1" fill="none" fill-rule="evenodd"><g id="Welcome-Screen-Copy-36" fill="#FFF" transform="translate(0 -353)"><g id="VINTED36946" transform="translate(0 142)"><path id="Fill-1" d="M375 285l3-15-5-1-9-3c-2-1-4-1-5-3l-3-1c-5 1-10 0-14-4l-7-5h-3l-8-2h-2c-2-1-4 0-6-2l-3-1h-2l-6-2h-1l-5 2c-4 0-8-2-11-3l-3-1c-5-1-10-2-13-6l-2-1c-2-1-5-3-8-2l-4-1-5-2-11-3h-10l-3-2-4-1-4-1-1-1-7-2c-1-1-2-3-4-2l-2-1-6-2-4-2c-2 0-4-2-6-1l-15-6h-8c-1 2-4 3-6 2s-5 0-7-3l-4 1-6 2c-3 0-7 0-9-2l-2-1-2 1-5-1h-1c-3 0-6 1-9-1h-5c-2-2-3-1-5 0-1 2-3 2-4 1h-2l-9-1-6 1c-3 1-6 2-10 1-3 0-4-1-5-3l-3-3h-2l-5-1-7-1c-5 0-9-1-14-4l-5-2-5 1h-2l-8-4-3-1-5-3-5 26 368 72z" transform="rotate(-11 193 236)"/></g></g></g></svg>
